<svg xmlns="http://www.w3.org/2000/svg" width="28" height="28" viewBox="0 0 28 28">
    <defs>
        <filter id="a" width="114.9%" height="141.2%" x="-7.4%" y="-14.7%" filterUnits="objectBoundingBox">
            <feOffset dy="2" in="SourceAlpha" result="shadowOffsetOuter1"/>
            <feGaussianBlur in="shadowOffsetOuter1" result="shadowBlurOuter1" stdDeviation="2"/>
            <feColorMatrix in="shadowBlurOuter1" result="shadowMatrixOuter1" values="0 0 0 0 0 0 0 0 0 0 0 0 0 0 0 0 0 0 0.15 0"/>
            <feMerge>
                <feMergeNode in="shadowMatrixOuter1"/>
                <feMergeNode in="SourceGraphic"/>
            </feMerge>
        </filter>
    </defs>
    <path fill="#FFF" fill-rule="evenodd" d="M19.142 16.142h-3a1 1 0 0 0 0 2h3v3a1 1 0 1 0 2 0v-3h3a1 1 0 1 0 0-2h-3v-3a1 1 0 1 0-2 0v3zm1-9c5.523 0 10 4.477 10 10s-4.477 10-10 10-10-4.477-10-10 4.477-10 10-10z" filter="url(#a)" transform="rotate(45 23.178 7.4)"/>
</svg>
