<svg xmlns="http://www.w3.org/2000/svg" width="62" height="57" viewBox="0 0 62 57">
    <g fill="none" fill-rule="nonzero">
        <path fill="#2CB658" d="M57.26 46.012l-10.21-5.137a3.922 3.922 0 0 1-2.153-3.505v-4.03c.286-.328.615-.751.966-1.25a23.68 23.68 0 0 0 3.174-6.436 3.222 3.222 0 0 0 2.273-3.07v-4.301c0-.946-.418-1.793-1.069-2.384v-6.22S51.511 0 38.483 0C25.454 0 26.724 9.68 26.724 9.68v6.219a3.217 3.217 0 0 0-1.069 2.384v4.302a3.23 3.23 0 0 0 1.479 2.707C28.2 29.972 31 33.34 31 33.34v3.93a3.92 3.92 0 0 1-2.03 3.44l-9.536 5.234a8.633 8.633 0 0 0-4.468 7.573V57H62v-3.273a8.633 8.633 0 0 0-4.74-7.715z"/>
        <path fill="#2C8047" d="M19.434 45.944l6.356-3.488c-.036-.035-.005-.046.07-.038l3.11-1.707A3.922 3.922 0 0 0 31 37.27V33.34s-1.135-1.372-2.236-3.574l-.001-.003a21.904 21.904 0 0 1-.427-.908l-.058-.13a19.99 19.99 0 0 1-.412-1.015c-.009-.023-.016-.048-.025-.07a20.293 20.293 0 0 1-.327-.964l-.082-.27c-.108-.363-.21-.733-.297-1.116a3.222 3.222 0 0 1-1.48-2.705v-4.302c0-.946.418-1.793 1.07-2.384V9.824c-1.511-1.178-3.852-2.296-7.484-2.296-10.222 0-10.69 8.604-10.69 8.604v5.372c-.562.51-1.068 1.241-1.068 2.059v3.715c0 .98.512 1.84 1.276 2.338.923 4.042 4.02 6.95 4.02 6.95v3.395a3.387 3.387 0 0 1-1.753 2.97L3.86 47.453A7.457 7.457 0 0 0 0 53.992V57h14.966v-3.483a8.633 8.633 0 0 1 4.468-7.573z"/>
    </g>
</svg>
