<svg xmlns="http://www.w3.org/2000/svg" width="60" height="60" viewBox="0 0 60 60">
    <path fill="#FFDA44" fill-rule="nonzero" d="M56.484 49.777v-7.355h-14.18V31.758h3.516c5.816 0 10.547-4.731 10.547-10.547 0-6.02-5.083-10.997-11.16-10.645a10.517 10.517 0 0 0-9.934-7.05c-1.09 0-2.17.176-3.224.525C29.73 1.488 26.424 0 22.97 0c-6.336 0-11.687 4.815-12.337 11.12-4.194 1.444-7.116 5.557-7.116 10.09 0 5.817 4.73 10.548 10.546 10.548h3.516v10.664H3.516v7.355C1.474 50.505 0 52.437 0 54.727A5.28 5.28 0 0 0 5.273 60a5.28 5.28 0 0 0 5.274-5.273c0-2.29-1.474-4.222-3.516-4.95v-3.84h14.063v-14.18h7.148v18.02c-2.041.728-3.515 2.66-3.515 4.95A5.28 5.28 0 0 0 30 60a5.28 5.28 0 0 0 5.273-5.273c0-2.29-1.474-4.222-3.515-4.95v-18.02h7.031v14.18h14.18v3.84c-2.042.728-3.516 2.66-3.516 4.95A5.28 5.28 0 0 0 54.727 60 5.28 5.28 0 0 0 60 54.727c0-2.29-1.474-4.222-3.516-4.95z"/>
</svg>
