<svg xmlns="http://www.w3.org/2000/svg" width="54" height="54" viewBox="0 0 54 54">
    <path fill="#D80027" fill-rule="nonzero" d="M53.011 14.83L39.174.989A3.376 3.376 0 0 0 36.78 0H17.216c-.894 0-1.755.354-2.386.989L.992 14.829A3.35 3.35 0 0 0 0 17.217v19.571c0 .895.354 1.755.989 2.387l13.837 13.84a3.385 3.385 0 0 0 2.39.986h19.572c.894 0 1.755-.354 2.386-.989L53.01 39.167A3.354 3.354 0 0 0 54 36.78V17.216c0-.895-.354-1.755-.989-2.386zm-26.01 32.42a3.376 3.376 0 0 1 0-6.75 3.376 3.376 0 0 1 0 6.75zm3.374-16.875a3.376 3.376 0 0 1-6.75 0v-20.25a3.376 3.376 0 0 1 6.75 0v20.25z"/>
</svg>
