<svg xmlns="http://www.w3.org/2000/svg" width="29" height="29" viewBox="0 0 29 29">
    <defs>
        <filter id="a" width="117.7%" height="141.2%" x="-8.9%" y="-14.7%" filterUnits="objectBoundingBox">
            <feOffset dy="2" in="SourceAlpha" result="shadowOffsetOuter1"/>
            <feGaussianBlur in="shadowOffsetOuter1" result="shadowBlurOuter1" stdDeviation="2"/>
            <feColorMatrix in="shadowBlurOuter1" result="shadowMatrixOuter1" values="0 0 0 0 0 0 0 0 0 0 0 0 0 0 0 0 0 0 0.15 0"/>
            <feMerge>
                <feMergeNode in="shadowMatrixOuter1"/>
                <feMergeNode in="SourceGraphic"/>
            </feMerge>
        </filter>
    </defs>
    <path fill="#FFF" fill-rule="nonzero" d="M20.61 7.674a10.479 10.479 0 0 0-.94-2.268c.065.06-.216-.39-.274-.48a13.031 13.031 0 0 0-.767-1.053 3.845 3.845 0 0 0-.244-.303c-.31-.342-.617-.649-.942-.936a4.936 4.936 0 0 0-.273-.24 12.938 12.938 0 0 0-1.063-.758c-.126-.09-1.971-1.019-2.769-1.243A10.456 10.456 0 0 0 7.673.39c-.806.226-1.56.546-2.267.94.06-.065-.389.216-.48.274-.39.258-.73.504-1.053.768a3.691 3.691 0 0 0-.303.244c-.341.308-.648.615-.935.94-.096.1-.17.187-.241.274a13.16 13.16 0 0 0-.758 1.062C1.545 5.02.617 6.864.393 7.661a10.473 10.473 0 0 0-.004 5.665c.228.808.547 1.562.94 2.268-.042-.04-.003.048.12.264.041.032.097.125.154.216.014.022.031.04.049.059.22.345.46.677.72.994.095.132.169.218.243.303.31.34.616.648.942.935.1.096.186.169.273.24.371.291.71.535 1.063.759.126.09.22.146.312.2-.023-.003.255.167.194.102a10.416 10.416 0 0 0 10.195.004c0-.004.389-.216.48-.274.387-.257.726-.5 1.048-.764.137-.1.223-.173.308-.248.342-.31.65-.617.937-.942.094-.1.167-.185.239-.273.282-.361.522-.693.743-1.038a.368.368 0 0 0 .048-.06c.058-.09.113-.183.168-.276-.004.023.166-.255.101-.194a10.42 10.42 0 0 0 .945-7.927zM10.5.724a9.76 9.76 0 0 1 2.306.277L11.8 5.024a5.6 5.6 0 0 0-1.3-.158c-.448 0-.882.059-1.3.158L8.194 1A9.778 9.778 0 0 1 10.5.724zM.724 10.5c0-.794.098-1.566.277-2.306L5.024 9.2c-.1.418-.158.852-.158 1.3 0 .448.059.882.158 1.3L1 12.806A9.74 9.74 0 0 1 .724 10.5zm9.776 9.776a9.76 9.76 0 0 1-2.306-.277L9.2 15.976c.418.1.852.157 1.3.157.448 0 .882-.058 1.3-.157l1.006 4.023a9.76 9.76 0 0 1-2.306.277zm0-4.866a4.915 4.915 0 0 1-4.91-4.91 4.915 4.915 0 0 1 4.91-4.91 4.915 4.915 0 0 1 4.91 4.91 4.915 4.915 0 0 1-4.91 4.91zm9.499-2.604L15.976 11.8c.1-.418.158-.852.158-1.3 0-.448-.058-.882-.158-1.3L20 8.194a9.74 9.74 0 0 1 0 4.612z" filter="url(#a)" transform="translate(4 2)"/>
</svg>
