<svg xmlns="http://www.w3.org/2000/svg" width="20" height="26" viewBox="0 0 20 26">
    <path fill="#676C72" fill-rule="nonzero" d="M.066 13.91a10.006 10.006 0 0 1 .33-3.932c1.183-4.08 4.895-7.082 9.299-7.135V.176c0-.149.183-.228.304-.138l5.43 4.033c.088.069.088.207 0 .27l-5.425 4.033c-.126.09-.304.01-.304-.137V5.574c-2.896.048-5.367 1.853-6.43 4.404a7.157 7.157 0 0 0 1 7.235 1.375 1.375 0 0 1-.256 1.958 1.352 1.352 0 0 1-1.875-.264A9.843 9.843 0 0 1 .066 13.91zm15.677-5.123a7.113 7.113 0 0 1 1.55 4.091 7.205 7.205 0 0 1-.55 3.144c-1.063 2.551-3.535 4.361-6.43 4.404v-2.663c0-.148-.184-.227-.304-.137l-5.43 4.033c-.089.069-.089.206 0 .27l5.425 4.033c.125.09.303.01.303-.138v-2.667c4.404-.048 8.122-3.049 9.3-7.135.356-1.228.482-2.556.33-3.932a9.791 9.791 0 0 0-2.069-4.997 1.353 1.353 0 0 0-1.874-.264 1.38 1.38 0 0 0-.251 1.958z"/>
</svg>
