<svg xmlns="http://www.w3.org/2000/svg" width="33" height="26" viewBox="0 0 33 26">
    <defs>
        <filter id="a" width="108.8%" height="141.2%" x="-4.4%" y="-14.7%" filterUnits="objectBoundingBox">
            <feOffset dy="2" in="SourceAlpha" result="shadowOffsetOuter1"/>
            <feGaussianBlur in="shadowOffsetOuter1" result="shadowBlurOuter1" stdDeviation="2"/>
            <feColorMatrix in="shadowBlurOuter1" result="shadowMatrixOuter1" values="0 0 0 0 0 0 0 0 0 0 0 0 0 0 0 0 0 0 0.15 0"/>
            <feMerge>
                <feMergeNode in="shadowMatrixOuter1"/>
                <feMergeNode in="SourceGraphic"/>
            </feMerge>
        </filter>
    </defs>
    <path fill="#FFF" fill-rule="nonzero" d="M40.906 18.029A4.698 4.698 0 0 1 42 21.09c0 1.355-.488 2.512-1.465 3.47C39.558 25.522 38.38 26 37 26H22.833c-1.606 0-2.98-.56-4.12-1.681C17.57 23.199 17 21.849 17 20.273c0-1.125.308-2.155.924-3.087a5.71 5.71 0 0 1 2.435-2.09 8.172 8.172 0 0 1-.026-.55c0-1.807.651-3.35 1.953-4.628C23.588 8.639 25.16 8 27 8a6.54 6.54 0 0 1 3.73 1.125 6.563 6.563 0 0 1 2.442 2.94c.607-.528 1.328-.792 2.161-.792.92 0 1.706.32 2.357.958.65.64.976 1.41.976 2.314 0 .64-.178 1.227-.534 1.764a4.9 4.9 0 0 1 2.774 1.72zm-8.31.304c.012.11.02.221.02.334 0 1.656-1.396 3-3.116 3-1.72 0-3.115-1.344-3.115-3 0-1.544 1.211-2.817 2.769-2.982V17l2.77-2-2.77-2v1.346c-2.324.17-4.154 2.04-4.154 4.32C25 21.06 27.015 23 29.5 23s4.5-1.94 4.5-4.333c0-.112-.005-.224-.012-.334h-1.391z" filter="url(#a)" transform="translate(-13 -6)"/>
</svg>
